<svg width="600" height="240" viewBox="0 0 600 240" fill="none" xmlns="http://www.w3.org/2000/svg" xmlns:xlink="http://www.w3.org/1999/xlink">
  <defs>
    <g id="star">
      <path fill-rule="evenodd" clip-rule="evenodd" d="M59.6537 18.6537L52.7838 39.7926C52.0795 41.9524 50.71 43.834 48.8713 45.1681C47.033 46.5019 44.8199 47.2201 42.5487 47.2198H20.3228L38.308 60.2835C40.1465 61.62 41.5146 63.5041 42.2165 65.6659C42.9183 67.8272 42.918 70.1551 42.2159 72.3162L35.3531 93.4471L53.3245 80.3934C55.1639 79.0563 57.3796 78.336 59.6537 78.336C61.9271 78.336 64.1421 79.0558 65.9812 80.3921L83.9543 93.4471L77.0916 72.3162C76.3894 70.1551 76.3891 67.8272 77.0909 65.6659C77.7928 63.5041 79.161 61.62 80.9994 60.2835L98.9846 47.2198L76.7495 47.2198C74.4796 47.2181 72.2683 46.4989 70.4317 45.165C68.5952 43.831 67.2273 41.9507 66.5236 39.7926L59.6537 18.6537ZM84.6825 95.6892L84.6815 95.6862L84.6825 95.6892ZM69.8905 12.8542C66.667 2.92979 52.6431 2.94987 49.4181 12.8505L41.995 35.6917H17.9787C7.5592 35.6917 3.21101 49.033 11.6492 55.1678L31.0805 69.2819L23.6616 92.1253C20.439 102.032 31.7848 110.298 40.2239 104.157L40.2261 104.156L59.6537 90.0443L79.0813 104.156L79.0825 104.157C87.5204 110.298 98.8715 102.039 95.6449 92.1223L88.2269 69.282L107.661 55.1658C116.073 49.0423 111.774 35.6917 101.329 35.6917H77.3125L69.8911 12.8559L69.8905 12.8542ZM31.252 68.7538L31.2516 68.7553L31.252 68.7538Z" />
      <path fill-rule="evenodd" clip-rule="evenodd" d="M59.6562 12.3629L46.1562 43.3629L16.6562 45.3629L36.6562 66.3629L30.6562 97.8629L59.6562 84.8629L87.6562 97.8629L83.1562 67.8629L106.156 43.3629L71.6562 39.8629L59.6562 12.3629Z" />
    </g>
  </defs>
  <use x="0" y="0" xlink:href="#star" fill="#ddd"/>
  <use x="120" y="0" xlink:href="#star" fill="#ddd"/>
  <use x="240" y="0" xlink:href="#star" fill="#ddd"/>
  <use x="360" y="0" xlink:href="#star" fill="#ddd"/>
  <use x="480" y="0" xlink:href="#star" fill="#ddd"/>
  <use x="0" y="120" xlink:href="#star" fill="#FBBC05"/>
  <use x="120" y="120" xlink:href="#star" fill="#FBBC05"/>
  <use x="240" y="120" xlink:href="#star" fill="#FBBC05"/>
  <use x="360" y="120" xlink:href="#star" fill="#FBBC05"/>
  <use x="480" y="120" xlink:href="#star" fill="#FBBC05"/>
</svg>
